<?xml version="1.0" standalone="no"?>
<!DOCTYPE svg PUBLIC "-//W3C//DTD SVG 20010904//EN"
 "http://www.w3.org/TR/2001/REC-SVG-20010904/DTD/svg10.dtd">
<svg version="1.0" xmlns="http://www.w3.org/2000/svg"
 width="265.000000pt" height="190.000000pt" viewBox="0 0 265.000000 190.000000"
 preserveAspectRatio="xMidYMid meet">

<g transform="translate(0.000000,190.000000) scale(0.100000,-0.100000)"
fill="#000000" stroke="none">
<path d="M2042 1857 l-31 -32 24 -30 c32 -40 31 -55 -3 -55 -32 0 -55 21 -71
63 -14 37 -23 34 -46 -15 -11 -23 -27 -46 -37 -52 -26 -15 -48 10 -48 55 0 22
-5 39 -10 39 -17 0 -50 -81 -50 -123 0 -77 83 -115 136 -62 l25 25 29 -21 c40
-30 94 -20 120 24 20 32 28 142 14 195 -8 29 -14 28 -52 -11z"/>
<path d="M1272 1519 c-29 -44 -50 -83 -48 -88 3 -4 40 -32 82 -61 85 -59 79
-60 125 10 l16 24 59 -42 c33 -23 62 -42 66 -42 7 0 112 160 107 163 -2 2 -41
29 -86 60 l-81 57 -21 -32 c-11 -18 -25 -39 -29 -46 -7 -10 -24 -3 -73 31
l-64 45 -53 -79z"/>
<path d="M1920 1473 c-69 -46 -128 -88 -133 -92 -4 -4 17 -112 48 -241 30
-128 55 -239 55 -247 0 -10 -22 -13 -94 -13 l-93 0 -6 58 c-8 98 -57 169 -181
262 -65 49 -70 48 -159 -18 -103 -75 -131 -153 -87 -244 11 -23 20 -46 20 -50
0 -5 -34 -8 -76 -6 l-76 3 1 134 c2 114 0 133 -13 128 -11 -4 -190 -132 -215
-154 -3 -2 16 -25 42 -51 26 -26 47 -51 47 -55 0 -25 -235 7 -342 47 -49 18
-90 30 -93 27 -4 -8 -35 -193 -35 -215 0 -8 37 -30 90 -52 49 -22 90 -42 90
-45 0 -13 -113 -32 -221 -36 -133 -6 -200 8 -265 55 -45 33 -86 104 -104 180
-7 28 -16 52 -22 52 -16 0 -76 -141 -88 -208 -16 -92 -1 -157 52 -217 72 -82
176 -118 337 -118 236 2 412 104 446 260 l7 33 99 0 99 0 17 35 17 35 25 -24
c48 -44 60 -46 290 -46 l221 0 6 25 c3 14 8 25 10 25 1 0 24 -11 50 -25 42
-23 58 -25 163 -25 l117 0 12 34 13 35 45 -32 46 -32 224 -3 224 -3 50 107
c27 59 50 110 50 114 0 4 -48 9 -107 12 -116 6 -174 23 -193 57 -9 18 -8 23 7
29 27 11 193 7 237 -6 l38 -11 -6 51 c-13 96 -57 166 -123 194 -52 22 -151 18
-198 -9 -85 -48 -141 -171 -118 -258 5 -21 8 -41 5 -44 -3 -3 -29 -5 -59 -5
l-53 0 0 334 c0 184 -3 337 -7 339 -5 3 -64 -33 -133 -80z m-400 -539 c22 -20
40 -40 40 -45 0 -12 -97 -11 -121 1 -26 14 -24 45 3 64 30 22 32 21 78 -20z"/>
<path d="M961 1436 c-28 -41 -51 -79 -51 -85 0 -10 159 -125 165 -119 10 11
95 147 97 156 2 6 -24 29 -56 52 -115 81 -98 82 -155 -4z"/>
<path d="M220 210 c-28 -43 -49 -83 -46 -88 3 -5 40 -33 82 -62 l77 -54 16 24
c45 68 41 67 109 22 33 -23 63 -42 65 -42 6 0 109 162 105 164 -2 1 -39 28
-84 58 l-81 56 -31 -44 -31 -44 -64 45 -65 45 -52 -80z"/>
</g>
</svg>
